<svg width="136" height="39" viewBox="0 0 136 39" fill="none" xmlns="http://www.w3.org/2000/svg">
<mask id="mask0_224_114" style="mask-type:alpha" maskUnits="userSpaceOnUse" x="6" y="5" width="24" height="24">
<circle cx="17.9196" cy="16.9196" r="11.2797" fill="#D9D9D9"/>
</mask>
<g mask="url(#mask0_224_114)">
<path d="M25.5335 18.9639L27.2254 21.2198C28.9174 23.4757 32.3013 23.4757 33.9933 21.2198L34.8392 20.0918V2.11476H1.00005V20.0918L1.84603 18.9639C3.53799 16.7079 6.92191 16.7079 8.61387 18.9639L10.3058 21.2198C11.9978 23.4757 15.3817 23.4757 17.0737 21.2198L18.7656 18.9639C20.4576 16.7079 23.8415 16.7079 25.5335 18.9639Z" fill="white" fill-opacity="0.24"/>
</g>
<mask id="mask1_224_114" style="mask-type:alpha" maskUnits="userSpaceOnUse" x="1" y="17" width="34" height="22">
<path d="M10.3058 21.5725L8.61382 19.3166C6.92186 17.0606 3.53794 17.0606 1.84598 19.3166L1 20.4446V38.4216H34.8392V20.4446L33.9932 21.5725C32.3012 23.8285 28.9173 23.8285 27.2254 21.5725L25.5334 19.3166C23.8414 17.0606 20.4575 17.0606 18.7656 19.3166L17.0736 21.5725C15.3817 23.8285 11.9977 23.8285 10.3058 21.5725Z" fill="white"/>
</mask>
<g mask="url(#mask1_224_114)">
<circle cx="17.9196" cy="16.9196" r="10.9272" stroke="#DAE9FF" stroke-width="0.704983" stroke-dasharray="1.41 1.41"/>
</g>
<path d="M34.8392 19.7395L33.9932 20.8674C32.3012 23.1234 28.9173 23.1234 27.2254 20.8674L25.5334 18.6115C23.8414 16.3556 20.4575 16.3556 18.7656 18.6115L17.0736 20.8674C15.3817 23.1234 11.9977 23.1234 10.3058 20.8674L8.61382 18.6115C6.92186 16.3556 3.53794 16.3556 1.84598 18.6115L1 19.7395" stroke="#DAE9FF" stroke-width="1.40997"/>
<path d="M41.7353 22.8887V10.8916H46.1287C46.9801 10.8916 47.685 11.0322 48.2434 11.3134C48.8019 11.5907 49.2198 11.9675 49.497 12.444C49.7743 12.9165 49.9129 13.4496 49.9129 14.0432C49.9129 14.5431 49.8212 14.9648 49.6376 15.3085C49.4541 15.6483 49.208 15.9216 48.8995 16.1286C48.5949 16.3317 48.2591 16.4801 47.892 16.5738V16.691C48.2903 16.7105 48.6789 16.8394 49.0577 17.0776C49.4404 17.3119 49.7567 17.6458 50.0067 18.0793C50.2566 18.5128 50.3816 19.04 50.3816 19.6609C50.3816 20.2741 50.2371 20.8247 49.9481 21.3129C49.663 21.7971 49.2217 22.1818 48.6242 22.4669C48.0267 22.7481 47.2632 22.8887 46.3338 22.8887H41.7353ZM43.5454 21.3363H46.158C47.025 21.3363 47.6459 21.1684 48.0208 20.8325C48.3957 20.4967 48.5832 20.0769 48.5832 19.5731C48.5832 19.1943 48.4875 18.8467 48.2962 18.5304C48.1048 18.214 47.8314 17.9621 47.476 17.7747C47.1246 17.5872 46.7067 17.4935 46.2225 17.4935H43.5454V21.3363ZM43.5454 16.0818H45.9706C46.3767 16.0818 46.7419 16.0036 47.066 15.8474C47.394 15.6912 47.6537 15.4725 47.8451 15.1913C48.0404 14.9063 48.138 14.5704 48.138 14.1838C48.138 13.6878 47.9642 13.2719 47.6166 12.936C47.2691 12.6002 46.736 12.4323 46.0174 12.4323H43.5454V16.0818ZM58.0877 19.1572V13.8909H59.8451V22.8887H58.1228V21.3305H58.0291C57.8221 21.8108 57.4902 22.2111 57.0333 22.5313C56.5803 22.8477 56.0159 23.0058 55.3403 23.0058C54.7623 23.0058 54.2507 22.8789 53.8055 22.6251C53.3642 22.3673 53.0167 21.9865 52.7628 21.4828C52.5129 20.979 52.3879 20.3561 52.3879 19.6141V13.8909H54.1394V19.4032C54.1394 20.0163 54.3093 20.5045 54.6491 20.8677C54.9888 21.2309 55.4301 21.4125 55.973 21.4125C56.301 21.4125 56.6271 21.3305 56.9513 21.1664C57.2793 21.0024 57.5507 20.7544 57.7655 20.4225C57.9842 20.0905 58.0916 19.6688 58.0877 19.1572ZM62.3391 22.8887V10.8916H64.0906V15.3495H64.1961C64.2976 15.1621 64.444 14.9453 64.6354 14.6993C64.8268 14.4532 65.0923 14.2385 65.4321 14.0549C65.7718 13.8675 66.221 13.7737 66.7794 13.7737C67.5058 13.7737 68.1541 13.9573 68.7242 14.3244C69.2944 14.6915 69.7416 15.2206 70.0657 15.9119C70.3938 16.6031 70.5578 17.4349 70.5578 18.4074C70.5578 19.3798 70.3957 20.2135 70.0716 20.9087C69.7474 21.5999 69.3022 22.133 68.736 22.5079C68.1697 22.8789 67.5234 23.0644 66.797 23.0644C66.2502 23.0644 65.8031 22.9726 65.4555 22.7891C65.1118 22.6055 64.8424 22.3907 64.6471 22.1447C64.4519 21.8987 64.3015 21.68 64.1961 21.4886H64.0496V22.8887H62.3391ZM64.0555 18.3898C64.0555 19.0224 64.1472 19.577 64.3308 20.0534C64.5143 20.5299 64.7799 20.9028 65.1275 21.1723C65.475 21.4379 65.9007 21.5706 66.4045 21.5706C66.9278 21.5706 67.3652 21.432 67.7167 21.1547C68.0682 20.8735 68.3337 20.4928 68.5134 20.0124C68.6969 19.5321 68.7887 18.9912 68.7887 18.3898C68.7887 17.7962 68.6989 17.2631 68.5192 16.7906C68.3435 16.318 68.0779 15.9451 67.7225 15.6717C67.3711 15.3983 66.9317 15.2616 66.4045 15.2616C65.8968 15.2616 65.4672 15.3925 65.1158 15.6541C64.7682 15.9158 64.5046 16.2809 64.3249 16.7496C64.1453 17.2182 64.0555 17.7649 64.0555 18.3898ZM72.6652 22.8887V10.8916H74.4167V15.3495H74.5221C74.6237 15.1621 74.7701 14.9453 74.9615 14.6993C75.1528 14.4532 75.4184 14.2385 75.7582 14.0549C76.0979 13.8675 76.547 13.7737 77.1055 13.7737C77.8319 13.7737 78.4801 13.9573 79.0503 14.3244C79.6205 14.6915 80.0676 15.2206 80.3918 15.9119C80.7198 16.6031 80.8839 17.4349 80.8839 18.4074C80.8839 19.3798 80.7218 20.2135 80.3976 20.9087C80.0735 21.5999 79.6283 22.133 79.062 22.5079C78.4958 22.8789 77.8494 23.0644 77.1231 23.0644C76.5763 23.0644 76.1292 22.9726 75.7816 22.7891C75.4379 22.6055 75.1685 22.3907 74.9732 22.1447C74.7779 21.8987 74.6276 21.68 74.5221 21.4886H74.3757V22.8887H72.6652ZM74.3815 18.3898C74.3815 19.0224 74.4733 19.577 74.6569 20.0534C74.8404 20.5299 75.106 20.9028 75.4535 21.1723C75.8011 21.4379 76.2268 21.5706 76.7306 21.5706C77.2539 21.5706 77.6913 21.432 78.0428 21.1547C78.3942 20.8735 78.6598 20.4928 78.8394 20.0124C79.023 19.5321 79.1148 18.9912 79.1148 18.3898C79.1148 17.7962 79.0249 17.2631 78.8453 16.7906C78.6696 16.318 78.404 15.9451 78.0486 15.6717C77.6971 15.3983 77.2578 15.2616 76.7306 15.2616C76.2229 15.2616 75.7933 15.3925 75.4418 15.6541C75.0943 15.9158 74.8307 16.2809 74.651 16.7496C74.4714 17.2182 74.3815 17.7649 74.3815 18.3898ZM84.6022 10.8916V22.8887H82.8507V10.8916H84.6022ZM90.8365 23.0703C89.95 23.0703 89.1865 22.8809 88.546 22.502C87.9095 22.1193 87.4174 21.5824 87.0698 20.8911C86.7262 20.196 86.5543 19.3817 86.5543 18.4484C86.5543 17.5267 86.7262 16.7144 87.0698 16.0115C87.4174 15.3085 87.9017 14.7598 88.5226 14.3654C89.1474 13.9709 89.8777 13.7737 90.7135 13.7737C91.2212 13.7737 91.7132 13.8577 92.1897 14.0256C92.6661 14.1935 93.0937 14.4572 93.4726 14.8164C93.8514 15.1757 94.1501 15.6424 94.3688 16.2165C94.5875 16.7867 94.6969 17.4798 94.6969 18.2961V18.917H87.5443V17.6048H92.9805C92.9805 17.144 92.8868 16.7359 92.6993 16.3805C92.5118 16.0212 92.2482 15.7381 91.9085 15.5311C91.5726 15.3241 91.1782 15.2206 90.7252 15.2206C90.2331 15.2206 89.8035 15.3417 89.4364 15.5838C89.0732 15.822 88.7921 16.1345 88.5929 16.5211C88.3976 16.9038 88.3 17.3197 88.3 17.7688V18.794C88.3 19.3954 88.4054 19.907 88.6163 20.3288C88.8311 20.7505 89.1299 21.0727 89.5126 21.2953C89.8953 21.514 90.3425 21.6234 90.8541 21.6234C91.186 21.6234 91.4887 21.5765 91.762 21.4828C92.0354 21.3851 92.2717 21.2406 92.4708 21.0493C92.67 20.8579 92.8223 20.6217 92.9278 20.3405L94.5856 20.6392C94.4528 21.1274 94.2146 21.555 93.8709 21.9221C93.5311 22.2853 93.1035 22.5684 92.588 22.7715C92.0764 22.9707 91.4926 23.0703 90.8365 23.0703ZM105.03 22.8887H101.146V10.8916H105.153C106.329 10.8916 107.338 11.1318 108.182 11.6121C109.025 12.0886 109.672 12.774 110.121 13.6683C110.574 14.5587 110.8 15.6268 110.8 16.8726C110.8 18.1223 110.572 19.1962 110.115 20.0944C109.662 20.9927 109.006 21.6839 108.147 22.1681C107.288 22.6485 106.249 22.8887 105.03 22.8887ZM102.957 21.307H104.931C105.845 21.307 106.604 21.1352 107.209 20.7915C107.815 20.444 108.268 19.9421 108.568 19.286C108.869 18.626 109.02 17.8216 109.02 16.8726C109.02 15.9314 108.869 15.1328 108.568 14.4767C108.272 13.8206 107.828 13.3227 107.239 12.9829C106.649 12.6431 105.917 12.4733 105.042 12.4733H102.957V21.307ZM112.911 22.8887V13.8909H114.662V22.8887H112.911ZM113.795 12.5026C113.491 12.5026 113.229 12.401 113.01 12.1979C112.795 11.991 112.688 11.7449 112.688 11.4598C112.688 11.1708 112.795 10.9248 113.01 10.7217C113.229 10.5148 113.491 10.4113 113.795 10.4113C114.1 10.4113 114.36 10.5148 114.574 10.7217C114.793 10.9248 114.902 11.1708 114.902 11.4598C114.902 11.7449 114.793 11.991 114.574 12.1979C114.36 12.401 114.1 12.5026 113.795 12.5026ZM124.716 13.8909L121.453 22.8887H119.578L116.31 13.8909H118.19L120.469 20.815H120.563L122.835 13.8909H124.716ZM129.934 23.0703C129.047 23.0703 128.284 22.8809 127.643 22.502C127.007 22.1193 126.515 21.5824 126.167 20.8911C125.823 20.196 125.652 19.3817 125.652 18.4484C125.652 17.5267 125.823 16.7144 126.167 16.0115C126.515 15.3085 126.999 14.7598 127.62 14.3654C128.245 13.9709 128.975 13.7737 129.811 13.7737C130.318 13.7737 130.811 13.8577 131.287 14.0256C131.763 14.1935 132.191 14.4572 132.57 14.8164C132.949 15.1757 133.247 15.6424 133.466 16.2165C133.685 16.7867 133.794 17.4798 133.794 18.2961V18.917H126.642V17.6048H132.078C132.078 17.144 131.984 16.7359 131.797 16.3805C131.609 16.0212 131.346 15.7381 131.006 15.5311C130.67 15.3241 130.276 15.2206 129.822 15.2206C129.33 15.2206 128.901 15.3417 128.534 15.5838C128.171 15.822 127.889 16.1345 127.69 16.5211C127.495 16.9038 127.397 17.3197 127.397 17.7688V18.794C127.397 19.3954 127.503 19.907 127.714 20.3288C127.928 20.7505 128.227 21.0727 128.61 21.2953C128.993 21.514 129.44 21.6234 129.951 21.6234C130.283 21.6234 130.586 21.5765 130.859 21.4828C131.133 21.3851 131.369 21.2406 131.568 21.0493C131.767 20.8579 131.92 20.6217 132.025 20.3405L133.683 20.6392C133.55 21.1274 133.312 21.555 132.968 21.9221C132.628 22.2853 132.201 22.5684 131.685 22.7715C131.174 22.9707 130.59 23.0703 129.934 23.0703Z" fill="#EFFBFF"/>
</svg>
