<svg width="114" height="31" viewBox="0 0 114 31" fill="none" xmlns="http://www.w3.org/2000/svg">
<g clip-path="url(#clip0_224_100)">
<path d="M4.12245 26.5206C3.1925 26.5206 2.38718 26.406 1.71609 26.167C1.04499 25.9377 0.469767 25.6032 0 25.1827L1.06417 23.5389C1.96535 24.1027 2.96241 24.3799 4.05534 24.3799C4.49634 24.3799 4.91817 24.2652 5.31124 24.0263C5.70431 23.7873 6.05904 23.4528 6.37541 23.0132C6.69178 22.5736 6.96022 22.048 7.18072 21.4363C7.40123 20.8247 7.55462 20.1366 7.65049 19.3816H2.63645L3.05828 17.2408H7.97645C8.00521 17.0019 8.03397 16.782 8.05315 16.5813C8.07232 16.3806 8.08191 16.1704 8.08191 15.9697C8.08191 15.0618 7.89017 14.3163 7.50668 13.7429C7.1232 13.1599 6.5288 12.8732 5.73307 12.8732C5.26331 12.8732 4.77437 12.921 4.25666 13.0261C3.74855 13.1313 3.27878 13.2842 2.84736 13.4944L2.39677 11.7264C2.8953 11.4683 3.45135 11.2581 4.07451 11.0669C4.69767 10.8854 5.44546 10.7898 6.33706 10.7898C7.15196 10.7898 7.83265 10.9331 8.3887 11.2103C8.94475 11.4875 9.39534 11.8697 9.73089 12.3571C10.0664 12.8446 10.3157 13.418 10.4691 14.0679C10.6225 14.7273 10.6992 15.4249 10.6992 16.18C10.6992 17.6039 10.565 18.9515 10.2965 20.213C10.0281 21.4745 9.61584 22.564 9.07897 23.5006C8.5325 24.4372 7.85182 25.1731 7.02733 25.7083C6.19325 26.253 5.22496 26.5206 4.12245 26.5206Z" fill="white"/>
<path d="M18.3112 21.637H14.6297L13.7477 26.2052H11.3318L13.4218 15.5874H15.8185L15.0036 19.7638H18.6755L19.5 15.5874H21.9159L19.8451 26.2052H17.4292L18.3112 21.637Z" fill="white"/>
<path d="M28.5407 15.2815C29.6049 15.2815 30.439 15.5395 31.0525 16.0652C31.6661 16.5908 31.9729 17.2694 31.9729 18.1104C31.9729 18.8271 31.7812 19.4388 31.3881 19.9453C30.995 20.4423 30.4869 20.8532 29.8446 21.1686C29.2118 21.484 28.4928 21.7229 27.7066 21.8758C26.9205 22.0287 26.1152 22.1243 25.3003 22.153C25.2811 22.239 25.2811 22.3441 25.2811 22.4493C25.2811 22.5639 25.2811 22.65 25.2811 22.7264C25.2811 22.9749 25.3099 23.2138 25.3578 23.4336C25.4057 23.6534 25.5016 23.8541 25.6454 24.0166C25.7892 24.1886 25.981 24.3224 26.2206 24.4276C26.4603 24.5327 26.7767 24.5805 27.1602 24.5805C27.5245 24.5805 27.9271 24.5422 28.3682 24.4658C28.7996 24.3893 29.346 24.2555 29.998 24.0453L30.4006 25.7464C29.7775 26.014 29.1447 26.2052 28.5024 26.3294C27.86 26.4536 27.2273 26.5205 26.6041 26.5205C25.818 26.5205 25.1757 26.425 24.6771 26.2338C24.1786 26.0427 23.7759 25.7847 23.4883 25.4502C23.2007 25.1157 23.009 24.7334 22.9035 24.2938C22.7981 23.8541 22.7501 23.3763 22.7501 22.8602C22.7501 22.3728 22.7789 21.8472 22.8364 21.2833C22.8939 20.7194 23.009 20.146 23.172 19.5822C23.3349 19.0183 23.5554 18.4735 23.8239 17.9575C24.1019 17.4414 24.447 16.9826 24.8785 16.5908C25.3099 16.1894 25.818 15.874 26.422 15.6447C27.026 15.3962 27.7354 15.2815 28.5407 15.2815ZM28.1668 17.1547C27.7066 17.1547 27.3232 17.2694 27.0164 17.4892C26.7096 17.709 26.4411 17.9861 26.2302 18.3015C26.0193 18.6264 25.8468 18.9801 25.7317 19.3528C25.6167 19.7255 25.5208 20.0696 25.4633 20.3754C25.7413 20.3754 26.1152 20.3563 26.585 20.3276C27.0547 20.2989 27.5053 20.2129 27.9559 20.0887C28.4065 19.9549 28.7996 19.7542 29.1255 19.4961C29.4611 19.2285 29.6241 18.8558 29.6241 18.3684C29.6241 18.0052 29.4994 17.709 29.2502 17.4892C29.0009 17.2694 28.6366 17.1547 28.1668 17.1547Z" fill="white"/>
<path d="M36.5941 15.6064L36.8338 16.715L37.8117 16.1225C38.2431 15.874 38.617 15.6829 38.943 15.5491C39.2689 15.4153 39.5949 15.3484 39.9208 15.3484C40.4194 15.3484 40.8316 15.4344 41.148 15.616C41.4644 15.788 41.7232 16.0365 41.915 16.3423C42.1067 16.6481 42.2409 17.0113 42.3176 17.4223C42.3943 17.8332 42.4326 18.2728 42.4326 18.722C42.4326 19.477 42.356 20.2989 42.2121 21.1973C42.0683 22.0956 41.8095 22.9367 41.4356 23.7299C41.0617 24.5136 40.5632 25.173 39.9208 25.7082C39.2785 26.2338 38.4636 26.5014 37.4761 26.5014C37.1789 26.5014 36.8338 26.425 36.4216 26.2721C36.0189 26.1191 35.6162 25.8515 35.2136 25.4693L35.1944 25.4884L34.2645 30.2573C33.833 30.3625 33.4112 30.4676 32.9798 30.5632C32.5484 30.6683 32.1265 30.7734 31.7143 30.8977C32.1841 28.3364 32.6634 25.7846 33.1524 23.252C33.6413 20.7194 34.1302 18.1773 34.6384 15.6064H36.5941ZM36.5941 18.1964C36.4024 19.1521 36.2106 20.1078 36.0285 21.0444C35.8463 21.9905 35.6642 22.9271 35.482 23.8732C35.7313 24.0453 36.0093 24.2173 36.3257 24.3798C36.6325 24.5422 36.968 24.6187 37.3227 24.6187C37.7637 24.6187 38.1472 24.4084 38.4732 23.9975C38.7991 23.5865 39.0676 23.08 39.2785 22.497C39.4894 21.9045 39.6428 21.2929 39.7483 20.643C39.8441 19.9931 39.8921 19.4388 39.8921 18.9609C39.8921 18.3971 39.7962 17.9861 39.6045 17.709C39.4127 17.4414 39.0963 17.298 38.6553 17.298C38.3294 17.298 37.9747 17.3936 37.5912 17.5847C37.2077 17.7854 36.8817 17.9861 36.5941 18.1964Z" fill="white"/>
<path d="M45.9221 23.577C45.9221 23.9593 46.0563 24.2364 46.3344 24.3893C46.6028 24.5518 46.9767 24.6283 47.4561 24.6283C47.7916 24.6283 48.2326 24.5996 48.7791 24.5422C49.316 24.4849 49.8432 24.3607 50.3609 24.1886L50.802 25.756C50.5239 25.8898 50.2076 26.0045 49.872 26.1C49.5365 26.1956 49.1913 26.2721 48.8558 26.3294C48.5202 26.3867 48.1847 26.4345 47.8587 26.4632C47.5328 26.4919 47.2451 26.511 46.9959 26.511C45.9701 26.511 45.136 26.3007 44.4649 25.8898C43.8034 25.4788 43.4678 24.8003 43.4678 23.8446C43.4678 23.1374 43.6021 22.5544 43.8705 22.0861C44.1389 21.6178 44.4745 21.226 44.8963 20.9201C45.3181 20.6143 45.7879 20.3658 46.3056 20.1747C46.8233 19.9835 47.341 19.8115 47.8587 19.649C48.0984 19.563 48.3189 19.477 48.5298 19.4101C48.7407 19.3337 48.9325 19.2477 49.0859 19.133C49.2393 19.0183 49.3639 18.894 49.4502 18.7411C49.5365 18.5882 49.5844 18.3971 49.5844 18.1773C49.5844 17.8714 49.4693 17.623 49.2393 17.4414C49.0092 17.2598 48.6353 17.1642 48.0984 17.1642C47.83 17.1642 47.4369 17.1929 46.9288 17.2502C46.4111 17.3076 45.9221 17.4127 45.4619 17.5561L45.0401 15.9505C45.2894 15.8454 45.5674 15.7498 45.8742 15.6733C46.181 15.5873 46.4878 15.5204 46.8041 15.4631C47.1205 15.4057 47.4273 15.358 47.7341 15.3293C48.0409 15.3006 48.3189 15.2815 48.5873 15.2815C49.6323 15.2815 50.4664 15.4822 51.0704 15.8931C51.6744 16.2945 51.9812 16.9635 51.9812 17.8906C51.9812 18.464 51.8661 18.9514 51.6456 19.3337C51.4251 19.7255 51.1375 20.0504 50.7732 20.3276C50.4089 20.6048 50.0062 20.8246 49.546 21.0061C49.0859 21.1782 48.6257 21.3406 48.1559 21.4936C47.8204 21.6082 47.5136 21.7229 47.2356 21.8376C46.9671 21.9523 46.7274 22.0765 46.5261 22.239C46.3248 22.3919 46.181 22.5831 46.0755 22.8029C45.9701 23.0036 45.9221 23.2712 45.9221 23.577Z" fill="white"/>
<path d="M58.778 15.2815C59.8422 15.2815 60.6763 15.5395 61.2898 16.0652C61.9034 16.5908 62.2102 17.2694 62.2102 18.1104C62.2102 18.8271 62.0185 19.4388 61.6254 19.9453C61.2323 20.4423 60.7242 20.8532 60.0819 21.1686C59.4491 21.484 58.7301 21.7229 57.9439 21.8758C57.1578 22.0287 56.3525 22.1243 55.5376 22.153C55.5184 22.239 55.5184 22.3441 55.5184 22.4493C55.5184 22.5639 55.5184 22.65 55.5184 22.7264C55.5184 22.9749 55.5472 23.2138 55.5951 23.4336C55.643 23.6534 55.7389 23.8541 55.8827 24.0166C56.0265 24.1886 56.2183 24.3224 56.4579 24.4276C56.6976 24.5327 57.014 24.5805 57.3975 24.5805C57.7618 24.5805 58.1645 24.5422 58.6055 24.4658C59.0369 24.3893 59.5833 24.2555 60.2353 24.0453L60.6379 25.7464C60.0148 26.014 59.382 26.2052 58.7397 26.3294C58.0973 26.4536 57.4646 26.5205 56.8414 26.5205C56.0553 26.5205 55.413 26.425 54.9144 26.2338C54.4159 26.0427 54.0132 25.7847 53.7256 25.4502C53.438 25.1157 53.2463 24.7334 53.1408 24.2938C53.0354 23.8541 52.9874 23.3763 52.9874 22.8602C52.9874 22.3728 53.0162 21.8472 53.0737 21.2833C53.1312 20.7194 53.2463 20.146 53.4093 19.5822C53.5722 19.0183 53.7927 18.4735 54.0612 17.9575C54.3392 17.4414 54.6843 16.9826 55.1158 16.5908C55.5472 16.1894 56.0553 15.874 56.6593 15.6447C57.2633 15.3962 57.9631 15.2815 58.778 15.2815ZM58.4041 17.1547C57.9439 17.1547 57.5605 17.2694 57.2537 17.4892C56.9469 17.709 56.6785 17.9861 56.4675 18.3015C56.2566 18.6264 56.0841 18.9801 55.969 19.3528C55.854 19.7255 55.7581 20.0696 55.7006 20.3754C55.9786 20.3754 56.3525 20.3563 56.8223 20.3276C57.292 20.2989 57.7426 20.2129 58.1932 20.0887C58.6438 19.9549 59.0369 19.7542 59.3628 19.4961C59.6888 19.2381 59.8614 18.8558 59.8614 18.3684C59.8614 18.0052 59.7367 17.709 59.4875 17.4892C59.2382 17.2694 58.8739 17.1547 58.4041 17.1547Z" fill="white"/>
<path d="M74.0221 26.2053L75.4218 19.0088C75.4506 18.8941 75.4697 18.7699 75.4889 18.6552C75.5081 18.5405 75.5081 18.4259 75.5081 18.3207C75.5081 17.9862 75.4314 17.7186 75.278 17.5371C75.1246 17.3555 74.8658 17.2599 74.511 17.2599C74.3385 17.2599 74.1467 17.2886 73.9454 17.3459C73.7441 17.4033 73.5523 17.4797 73.3702 17.5753C73.188 17.6708 73.0059 17.7664 72.8429 17.8715C72.6703 17.9767 72.5265 18.0722 72.4115 18.1583L70.8584 26.1957H68.3945L69.7942 18.9993C69.8709 18.6265 69.9092 18.3398 69.9092 18.1391C69.9092 17.862 69.8421 17.6422 69.6983 17.4893C69.5545 17.3364 69.3053 17.2599 68.9314 17.2599C68.5958 17.2599 68.2315 17.3555 67.848 17.5562C67.4645 17.7569 67.129 17.9576 66.8318 18.1678L65.2787 26.2053H62.8436L64.8569 15.6065H66.8318L67.0715 16.7725L68.2411 16.0175C68.3465 15.9601 68.4808 15.8837 68.6437 15.7977C68.8067 15.7117 68.9793 15.6352 69.1519 15.5683C69.3244 15.5014 69.5066 15.4441 69.6696 15.3963C69.8421 15.3485 69.9859 15.3198 70.1202 15.3198C70.5228 15.3198 70.8488 15.3676 71.1172 15.4536C71.3857 15.5396 71.5966 15.6639 71.7691 15.8072C71.9417 15.9506 72.0663 16.1226 72.1526 16.3042C72.2389 16.4858 72.3156 16.6769 72.3731 16.8681L73.7728 16.027C74.07 15.8455 74.396 15.6925 74.7603 15.5396C75.1246 15.3963 75.4314 15.3198 75.6998 15.3198C76.1504 15.3198 76.5339 15.3772 76.8311 15.4918C77.1283 15.6065 77.3584 15.769 77.5214 15.9793C77.6844 16.1895 77.7994 16.4284 77.8569 16.696C77.924 16.9732 77.9528 17.2599 77.9528 17.5657C77.9528 17.8142 77.9336 18.0818 77.8953 18.3494C77.8569 18.6266 77.8186 18.8941 77.7802 19.1522L76.4668 26.1957H74.0221V26.2053Z" fill="white"/>
<path d="M112.179 0C111.901 0 111.69 0 111.441 0.00955701L110.741 0.0382281C110.271 0.0573421 109.811 0.0860131 109.351 0.124241C108.43 0.19114 107.51 0.28671 106.59 0.401395C105.669 0.516079 104.759 0.659434 103.848 0.83146C102.937 1.00349 102.036 1.21374 101.135 1.44311C100.233 1.67248 99.3419 1.94963 98.4599 2.25546C97.5779 2.56128 96.7054 2.90533 95.8522 3.29717C94.9989 3.68901 94.1553 4.11907 93.3595 4.6256L93.0528 4.80718L92.746 5.00788L92.4392 5.21813C92.3337 5.28503 92.2379 5.35193 92.1516 5.41883L91.6147 5.82022L91.5572 5.85845L91.5188 5.88712L91.4613 5.95402L91.3271 6.0687L91.0587 6.29807L90.7902 6.52744L90.5314 6.76637C90.3588 6.92884 90.1862 7.08175 90.0137 7.24422C89.6877 7.57871 89.3521 7.91321 89.0454 8.26682C88.4222 8.95492 87.847 9.70037 87.3197 10.4554C86.7828 11.2104 86.313 11.9941 85.8624 12.7968C85.4119 13.5996 85.0092 14.412 84.6353 15.2434C84.2518 16.0749 83.9259 16.9159 83.6191 17.7665C83.3123 18.6171 83.0343 19.4772 82.7946 20.3469C82.5549 21.2166 82.3536 22.0958 82.1714 22.9751C82.0084 23.8065 81.8742 24.6475 81.7784 25.4981C81.7688 25.5459 81.7688 25.5937 81.7592 25.6415C81.7496 25.7657 81.7208 26.0524 81.7112 26.2244H81.903L82.0084 25.5268C82.1618 24.7049 82.3536 23.8925 82.5645 23.0802C82.7946 22.2201 83.0438 21.3695 83.3315 20.5285C83.6095 19.6874 83.9163 18.856 84.2614 18.0341C84.597 17.2122 84.9613 16.3998 85.3543 15.6066C85.757 14.8134 86.1788 14.0297 86.639 13.2747C87.1088 12.5197 87.5881 11.7742 88.1346 11.0766C88.6715 10.3694 89.2371 9.69081 89.8603 9.05049C90.1575 8.72555 90.493 8.42929 90.8094 8.12346C90.9724 7.98011 91.1449 7.83675 91.3079 7.6934L91.5572 7.45447L91.816 7.25377L92.3433 6.85238L92.8898 6.4701C93.0719 6.3363 93.2637 6.23117 93.4458 6.11649C93.628 6.00181 93.8197 5.88712 94.0115 5.78199C94.7784 5.34237 95.5838 4.96009 96.3987 4.6256C97.2136 4.28154 98.0572 3.98528 98.9105 3.73679C99.7637 3.47875 100.617 3.24939 101.489 3.0678C103.225 2.68552 104.989 2.41792 106.762 2.25546C107.644 2.16944 108.536 2.1121 109.427 2.07387C110.242 2.0452 111.057 2.03564 111.872 2.0452C111.824 2.72375 111.738 3.4023 111.642 4.08085C111.527 4.82629 111.393 5.57174 111.23 6.31719C110.913 7.79852 110.482 9.25119 109.964 10.6752C108.929 13.5136 107.424 16.2183 105.324 18.3877C104.807 18.9324 104.222 19.4294 103.646 19.9073C103.043 20.366 102.429 20.8056 101.777 21.1975C101.125 21.5893 100.464 21.9525 99.7733 22.2583C99.083 22.5737 98.3832 22.8604 97.6641 23.1089C96.2261 23.5963 94.7497 23.9594 93.2445 24.1984C92.4967 24.313 91.7393 24.4086 90.982 24.4564C90.3109 24.5042 89.6302 24.5233 88.9591 24.5137C89.1892 23.7492 89.4576 22.9942 89.7548 22.2487C90.0808 21.4268 90.4451 20.624 90.8477 19.8308C91.2504 19.0471 91.6914 18.2826 92.1899 17.5467C92.4392 17.1835 92.698 16.8299 92.9761 16.4858C93.2541 16.1418 93.5417 15.8169 93.8581 15.5015C94.0115 15.3486 94.1649 15.1765 94.3278 15.0332L94.8072 14.584C95.1332 14.2877 95.4687 14.001 95.8138 13.7143C96.159 13.4372 96.5041 13.16 96.8588 12.902C97.2136 12.6344 97.5779 12.3859 97.9422 12.1279C98.3161 11.8794 98.6804 11.6309 99.0543 11.4015C99.4282 11.1626 99.8117 10.9332 100.186 10.7039C100.953 10.2547 101.729 9.82461 102.525 9.43277L102.429 9.23208C101.595 9.57613 100.79 9.94885 99.9842 10.3598C99.5816 10.5605 99.1789 10.7708 98.7858 10.9906C98.3928 11.2008 97.9997 11.4302 97.6066 11.6596C97.2231 11.8985 96.8301 12.1279 96.4562 12.3763C96.0727 12.6153 95.6988 12.8829 95.3249 13.1409C94.951 13.4085 94.5867 13.6761 94.2224 13.9724L93.6759 14.4215C93.4938 14.5744 93.3404 14.7178 93.1678 14.8707L92.9185 15.0905L92.8898 15.1192L92.8706 15.1288L92.861 15.1383L92.8418 15.1574L92.7747 15.2243L92.6501 15.3486C92.4775 15.511 92.3146 15.6831 92.1516 15.8551C91.8352 16.1991 91.5284 16.5623 91.2408 16.935C90.6656 17.6805 90.1479 18.4546 89.6685 19.2574C89.1892 20.0602 88.7577 20.8821 88.3647 21.7135C88.1633 22.134 87.9716 22.5546 87.7895 22.9846C87.6936 23.1949 87.6073 23.4147 87.521 23.6345C87.4347 23.8543 87.358 24.0646 87.2622 24.3226L86.7445 26.1193L88.6235 26.1958L88.9687 26.2149L89.285 26.2244C89.4959 26.2244 89.6973 26.2244 89.8986 26.2244C90.3013 26.2149 90.7135 26.2053 91.1162 26.1767C91.9215 26.1289 92.7268 26.0524 93.5225 25.9377C95.1236 25.7084 96.7054 25.3452 98.2585 24.8387C99.0351 24.5902 99.8021 24.2844 100.55 23.9594C101.307 23.6249 102.036 23.2427 102.764 22.8413C103.484 22.4303 104.183 21.962 104.864 21.4746L105.382 21.0637L105.631 20.863L105.852 20.6718L106.072 20.4902L106.177 20.3947L106.235 20.3469L106.293 20.2895L106.321 20.2609L106.781 19.8212C107.385 19.2287 107.951 18.6075 108.469 17.9481C108.996 17.2886 109.466 16.6005 109.907 15.9029C110.798 14.498 111.489 12.9975 112.083 11.478C112.38 10.7134 112.639 9.94885 112.85 9.16518C113.071 8.3815 113.262 7.59783 113.425 6.81415C113.579 6.02092 113.694 5.22769 113.799 4.4249C113.847 4.0235 113.876 3.62211 113.905 3.21116L113.933 2.59951C113.943 2.38925 113.943 2.19811 113.943 1.94963L113.991 0.0477851L112.179 0Z" fill="#0090D7"/>
</g>
<defs>
<clipPath id="clip0_224_100">
<rect width="114" height="30.8883" fill="white"/>
</clipPath>
</defs>
</svg>
