<svg width="153" height="31" viewBox="0 0 153 31" fill="none" xmlns="http://www.w3.org/2000/svg">
<g clip-path="url(#clip0_224_89)">
<circle cx="15.0019" cy="15.0019" r="15.0019" fill="#FEC700"/>
<path d="M8.08123 16.1128L4.87175 20.8949C4.02648 22.1543 2.08916 21.1038 2.68353 19.7083L7.08028 9.38551C7.44685 8.52485 8.59417 8.35694 9.19201 9.07645L15.7568 16.9773C16.692 18.1029 15.2638 19.6431 14.071 18.7952L9.84354 15.7905C9.27006 15.3829 8.47332 15.5286 8.08123 16.1128Z" fill="#423400"/>
<path d="M22.1253 19.7498L35.7856 40.6461C36.6167 41.9174 38.5687 40.8859 37.9867 39.483L23.9676 5.69082C23.6044 4.81543 22.4373 4.6467 21.8411 5.38339L2.26501 29.5719C1.34455 30.7092 2.7918 32.2307 3.97371 31.3682L20.342 19.424C20.9201 19.0021 21.7337 19.1508 22.1253 19.7498Z" fill="#251D00"/>
</g>
<path d="M38.2364 6.8843H40.6017L46.1635 20.4691H46.3553L51.9171 6.8843H54.2824V23.25H52.4285V10.8159H52.2687L47.1544 23.25H45.3644L40.2501 10.8159H40.0903V23.25H38.2364V6.8843ZM61.6122 23.5377C60.8344 23.5377 60.1285 23.3912 59.4946 23.0982C58.8606 22.7998 58.3572 22.371 57.9843 21.8116C57.6114 21.2469 57.4249 20.565 57.4249 19.7659C57.4249 19.0627 57.5634 18.4927 57.8404 18.0558C58.1175 17.6136 58.4877 17.2674 58.9512 17.017C59.4147 16.7666 59.9261 16.5801 60.4855 16.4576C61.0502 16.3297 61.6176 16.2285 62.1876 16.1539C62.9334 16.058 63.5381 15.9861 64.0016 15.9382C64.4704 15.8849 64.8113 15.797 65.0244 15.6745C65.2428 15.5519 65.352 15.3388 65.352 15.0352V14.9713C65.352 14.1828 65.1363 13.5702 64.7048 13.1333C64.2786 12.6965 63.6313 12.478 62.7629 12.478C61.8626 12.478 61.1567 12.6752 60.6453 13.0694C60.1339 13.4636 59.7743 13.8845 59.5665 14.332L57.7765 13.6927C58.0962 12.9469 58.5223 12.3662 59.0551 11.9506C59.5931 11.5298 60.1792 11.2368 60.8131 11.0716C61.4524 10.9011 62.081 10.8159 62.699 10.8159C63.0932 10.8159 63.5461 10.8638 64.0575 10.9597C64.5742 11.0503 65.0724 11.2394 65.5518 11.5271C66.0366 11.8148 66.4388 12.249 66.7585 12.8297C67.0781 13.4103 67.2379 14.1881 67.2379 15.163V23.25H65.352V21.5879H65.2561C65.1283 21.8542 64.9152 22.1392 64.6169 22.4429C64.3185 22.7466 63.9216 23.0049 63.4262 23.218C62.9308 23.4311 62.3261 23.5377 61.6122 23.5377ZM61.8999 21.8436C62.6457 21.8436 63.2744 21.6971 63.7858 21.4041C64.3025 21.1111 64.6914 20.7328 64.9525 20.2693C65.2189 19.8059 65.352 19.3184 65.352 18.807V17.0809C65.2721 17.1768 65.0963 17.2647 64.8246 17.3446C64.5583 17.4192 64.2493 17.4858 63.8977 17.5444C63.5514 17.5977 63.2131 17.6456 62.8828 17.6882C62.5578 17.7255 62.2941 17.7575 62.0917 17.7841C61.6016 17.848 61.1434 17.9519 60.7172 18.0958C60.2964 18.2343 59.9554 18.4447 59.6944 18.7271C59.4387 19.0041 59.3108 19.3823 59.3108 19.8618C59.3108 20.5171 59.5532 21.0125 60.038 21.3481C60.5281 21.6784 61.1487 21.8436 61.8999 21.8436ZM70.6801 23.25V10.9757H72.502V12.8297H72.6299C72.8537 12.2223 73.2585 11.7295 73.8445 11.3513C74.4306 10.9731 75.0912 10.7839 75.8263 10.7839C75.9648 10.7839 76.138 10.7866 76.3457 10.7919C76.5535 10.7973 76.7107 10.8052 76.8172 10.8159V12.7338C76.7533 12.7178 76.6068 12.6938 76.3777 12.6618C76.154 12.6245 75.9169 12.6059 75.6665 12.6059C75.0698 12.6059 74.5371 12.7311 74.0683 12.9815C73.6048 13.2265 73.2372 13.5675 72.9655 14.0043C72.6992 14.4359 72.566 14.9286 72.566 15.4827V23.25H70.6801ZM83.6336 28.1086C82.7226 28.1086 81.9395 27.9914 81.2842 27.757C80.629 27.5279 80.0829 27.2242 79.6461 26.846C79.2145 26.4731 78.8709 26.0735 78.6152 25.6473L80.1175 24.5925C80.288 24.8162 80.5038 25.072 80.7648 25.3596C81.0259 25.6526 81.3828 25.9057 81.8356 26.1188C82.2938 26.3372 82.8931 26.4464 83.6336 26.4464C84.6245 26.4464 85.4422 26.2067 86.0869 25.7272C86.7315 25.2478 87.0538 24.4966 87.0538 23.4737V20.9805H86.894C86.7554 21.2043 86.5583 21.4813 86.3026 21.8116C86.0522 22.1366 85.69 22.4269 85.2158 22.6826C84.747 22.933 84.1131 23.0582 83.314 23.0582C82.3231 23.0582 81.4334 22.8238 80.6449 22.355C79.8618 21.8862 79.2412 21.2043 78.783 20.3093C78.3302 19.4143 78.1038 18.3275 78.1038 17.0489C78.1038 15.7917 78.3249 14.6969 78.767 13.7646C79.2092 12.827 79.8245 12.1025 80.613 11.591C81.4014 11.0743 82.3124 10.8159 83.3459 10.8159C84.145 10.8159 84.779 10.9491 85.2478 11.2155C85.7219 11.4765 86.0842 11.7748 86.3346 12.1105C86.5903 12.4408 86.7874 12.7124 86.9259 12.9255H87.1177V10.9757H88.9397V23.6016C88.9397 24.6564 88.6999 25.5141 88.2205 26.1747C87.7463 26.8407 87.1071 27.3281 86.3026 27.6371C85.5035 27.9514 84.6138 28.1086 83.6336 28.1086ZM83.5697 21.3641C84.3262 21.3641 84.9654 21.191 85.4875 20.8447C86.0096 20.4984 86.4065 20.0003 86.6782 19.3504C86.9499 18.7004 87.0857 17.9226 87.0857 17.017C87.0857 16.1326 86.9526 15.3522 86.6862 14.6756C86.4198 13.999 86.0256 13.4689 85.5035 13.0854C84.9814 12.7018 84.3368 12.51 83.5697 12.51C82.7706 12.51 82.1046 12.7124 81.5719 13.1173C81.0445 13.5222 80.6476 14.0656 80.3812 14.7475C80.1202 15.4294 79.9897 16.1859 79.9897 17.017C79.9897 17.8693 80.1229 18.6232 80.3892 19.2784C80.6609 19.9284 81.0605 20.4398 81.5879 20.8127C82.1206 21.1803 82.7812 21.3641 83.5697 21.3641ZM96.0038 23.5377C95.226 23.5377 94.5201 23.3912 93.8861 23.0982C93.2522 22.7998 92.7487 22.371 92.3758 21.8116C92.0029 21.2469 91.8165 20.565 91.8165 19.7659C91.8165 19.0627 91.955 18.4927 92.232 18.0558C92.509 17.6136 92.8793 17.2674 93.3427 17.017C93.8062 16.7666 94.3177 16.5801 94.877 16.4576C95.4417 16.3297 96.0091 16.2285 96.5791 16.1539C97.325 16.058 97.9296 15.9861 98.3931 15.9382C98.8619 15.8849 99.2029 15.797 99.416 15.6745C99.6344 15.5519 99.7436 15.3388 99.7436 15.0352V14.9713C99.7436 14.1828 99.5278 13.5702 99.0963 13.1333C98.6701 12.6965 98.0228 12.478 97.1545 12.478C96.2542 12.478 95.5483 12.6752 95.0368 13.0694C94.5254 13.4636 94.1658 13.8845 93.9581 14.332L92.1681 13.6927C92.4877 12.9469 92.9139 12.3662 93.4466 11.9506C93.9847 11.5298 94.5707 11.2368 95.2047 11.0716C95.8439 10.9011 96.4726 10.8159 97.0906 10.8159C97.4848 10.8159 97.9376 10.8638 98.449 10.9597C98.9658 11.0503 99.4639 11.2394 99.9434 11.5271C100.428 11.8148 100.83 12.249 101.15 12.8297C101.47 13.4103 101.629 14.1881 101.629 15.163V23.25H99.7436V21.5879H99.6477C99.5198 21.8542 99.3067 22.1392 99.0084 22.4429C98.7101 22.7466 98.3132 23.0049 97.8177 23.218C97.3223 23.4311 96.7176 23.5377 96.0038 23.5377ZM96.2914 21.8436C97.0373 21.8436 97.6659 21.6971 98.1773 21.4041C98.6941 21.1111 99.083 20.7328 99.344 20.2693C99.6104 19.8059 99.7436 19.3184 99.7436 18.807V17.0809C99.6637 17.1768 99.4879 17.2647 99.2162 17.3446C98.9498 17.4192 98.6408 17.4858 98.2892 17.5444C97.9429 17.5977 97.6046 17.6456 97.2743 17.6882C96.9494 17.7255 96.6857 17.7575 96.4832 17.7841C95.9931 17.848 95.535 17.9519 95.1088 18.0958C94.6879 18.2343 94.347 18.4447 94.0859 18.7271C93.8302 19.0041 93.7023 19.3823 93.7023 19.8618C93.7023 20.5171 93.9447 21.0125 94.4295 21.3481C94.9196 21.6784 95.5403 21.8436 96.2914 21.8436ZM105.072 23.25V10.9757H106.894V12.8297H107.021C107.245 12.2223 107.65 11.7295 108.236 11.3513C108.822 10.9731 109.483 10.7839 110.218 10.7839C110.356 10.7839 110.53 10.7866 110.737 10.7919C110.945 10.7973 111.102 10.8052 111.209 10.8159V12.7338C111.145 12.7178 110.998 12.6938 110.769 12.6618C110.546 12.6245 110.308 12.6059 110.058 12.6059C109.461 12.6059 108.929 12.7311 108.46 12.9815C107.996 13.2265 107.629 13.5675 107.357 14.0043C107.091 14.4359 106.958 14.9286 106.958 15.4827V23.25H105.072ZM118.217 23.5057C117.034 23.5057 116.014 23.2447 115.156 22.7226C114.304 22.1952 113.646 21.46 113.183 20.5171C112.724 19.5688 112.495 18.466 112.495 17.2088C112.495 15.9515 112.724 14.8434 113.183 13.8845C113.646 12.9202 114.291 12.1691 115.116 11.631C115.947 11.0876 116.917 10.8159 118.025 10.8159C118.664 10.8159 119.296 10.9225 119.919 11.1355C120.542 11.3486 121.11 11.6949 121.621 12.1744C122.133 12.6485 122.54 13.2772 122.844 14.0603C123.147 14.8434 123.299 15.8077 123.299 16.953V17.7521H113.838V16.122H121.381C121.381 15.4294 121.243 14.8114 120.966 14.268C120.694 13.7247 120.305 13.2958 119.799 12.9815C119.298 12.6672 118.707 12.51 118.025 12.51C117.274 12.51 116.624 12.6965 116.075 13.0694C115.532 13.437 115.114 13.9164 114.821 14.5078C114.528 15.0991 114.381 15.7331 114.381 16.4096V17.4964C114.381 18.4234 114.541 19.2092 114.861 19.8538C115.186 20.4931 115.636 20.9805 116.211 21.3162C116.787 21.6465 117.455 21.8116 118.217 21.8116C118.712 21.8116 119.16 21.7424 119.559 21.6038C119.964 21.46 120.313 21.2469 120.606 20.9646C120.899 20.6769 121.126 20.3199 121.286 19.8938L123.107 20.4052C122.916 21.0232 122.593 21.5665 122.141 22.0354C121.688 22.4988 121.128 22.8611 120.462 23.1221C119.797 23.3779 119.048 23.5057 118.217 23.5057ZM131.506 10.9757V12.5739H125.145V10.9757H131.506ZM126.999 8.03501H128.885V19.7339C128.885 20.2667 128.962 20.6662 129.117 20.9326C129.277 21.1936 129.479 21.3694 129.724 21.46C129.974 21.5452 130.238 21.5879 130.515 21.5879C130.723 21.5879 130.893 21.5772 131.027 21.5559C131.16 21.5293 131.266 21.5079 131.346 21.492L131.73 23.1861C131.602 23.234 131.423 23.282 131.194 23.3299C130.965 23.3832 130.675 23.4098 130.323 23.4098C129.791 23.4098 129.269 23.2953 128.757 23.0662C128.251 22.8371 127.83 22.4882 127.495 22.0194C127.164 21.5506 126.999 20.9592 126.999 20.2454V8.03501ZM139.681 10.9757V12.5739H133.32V10.9757H139.681ZM135.174 8.03501H137.06V19.7339C137.06 20.2667 137.137 20.6662 137.292 20.9326C137.451 21.1936 137.654 21.3694 137.899 21.46C138.149 21.5452 138.413 21.5879 138.69 21.5879C138.898 21.5879 139.068 21.5772 139.201 21.5559C139.335 21.5293 139.441 21.5079 139.521 21.492L139.905 23.1861C139.777 23.234 139.598 23.282 139.369 23.3299C139.14 23.3832 138.85 23.4098 138.498 23.4098C137.966 23.4098 137.443 23.2953 136.932 23.0662C136.426 22.8371 136.005 22.4882 135.669 22.0194C135.339 21.5506 135.174 20.9592 135.174 20.2454V8.03501ZM147.532 23.5057C146.349 23.5057 145.329 23.2447 144.472 22.7226C143.619 22.1952 142.961 21.46 142.498 20.5171C142.04 19.5688 141.811 18.466 141.811 17.2088C141.811 15.9515 142.04 14.8434 142.498 13.8845C142.961 12.9202 143.606 12.1691 144.432 11.631C145.263 11.0876 146.232 10.8159 147.34 10.8159C147.98 10.8159 148.611 10.9225 149.234 11.1355C149.858 11.3486 150.425 11.6949 150.936 12.1744C151.448 12.6485 151.855 13.2772 152.159 14.0603C152.463 14.8434 152.614 15.8077 152.614 16.953V17.7521H143.153V16.122H150.697C150.697 15.4294 150.558 14.8114 150.281 14.268C150.009 13.7247 149.62 13.2958 149.114 12.9815C148.614 12.6672 148.022 12.51 147.34 12.51C146.589 12.51 145.939 12.6965 145.391 13.0694C144.847 13.437 144.429 13.9164 144.136 14.5078C143.843 15.0991 143.696 15.7331 143.696 16.4096V17.4964C143.696 18.4234 143.856 19.2092 144.176 19.8538C144.501 20.4931 144.951 20.9805 145.526 21.3162C146.102 21.6465 146.77 21.8116 147.532 21.8116C148.028 21.8116 148.475 21.7424 148.875 21.6038C149.28 21.46 149.628 21.2469 149.921 20.9646C150.214 20.6769 150.441 20.3199 150.601 19.8938L152.423 20.4052C152.231 21.0232 151.909 21.5665 151.456 22.0354C151.003 22.4988 150.444 22.8611 149.778 23.1221C149.112 23.3779 148.363 23.5057 147.532 23.5057Z" fill="white"/>
<defs>
<clipPath id="clip0_224_89">
<rect width="30.0038" height="30.0038" rx="15.0019" fill="white"/>
</clipPath>
</defs>
</svg>
